<svg width="298" height="101" viewBox="0 0 298 101" fill="none" xmlns="http://www.w3.org/2000/svg">
<path fill-rule="evenodd" clip-rule="evenodd" d="M223.458 32.3302C220.971 32.3302 218.173 32.9519 216.619 35.7497C215.042 38.4045 213.577 41.3028 212.275 44.3502H212.216C212.195 44.4489 212.173 44.5477 212.149 44.6466C211.53 46.1126 210.949 47.6122 210.412 49.1349C204.253 60.8153 186.157 72.4318 178.503 72.4318C177.26 72.4318 176.327 72.121 175.395 71.4992C193.114 56.8885 210.834 39.169 214.564 25.8018C215.186 23.6257 215.497 21.4496 215.497 19.5844C215.497 5.90627 200.886 0.31066 186.275 0.31066C171.975 0.31066 157.364 5.28453 154.567 12.7453C153.93 14.5642 153.24 16.782 152.451 19.3212C150.541 25.4615 148.047 33.4808 144.308 42.2777C144.061 42.5252 144.01 42.9697 144 43.2975C140.482 50.0336 134.686 59.9973 132.804 59.9973C132.493 59.9973 132.493 59.6864 132.493 59.0647C132.493 56.6797 134.767 50.2888 137.398 42.8949C139.224 37.7601 141.223 32.1417 142.752 27.0454C143.374 24.5585 143.685 22.3824 143.685 20.5172C143.685 9.63684 134.67 4.04123 125.654 4.04123C120.059 4.04123 114.774 6.2173 111.355 10.8803C109.458 13.5357 107.561 17.1169 105.735 20.5647C104.568 22.7679 103.43 24.9166 102.339 26.7345C102.339 27.0454 102.028 27.0454 102.028 27.0454C101.718 27.0454 101.718 26.7345 101.718 26.4237C102.394 25.0712 103.233 22.7382 104 20.6096C104.29 19.8025 104.57 19.0248 104.826 18.3411C105.137 17.4085 105.448 16.4759 105.448 15.5433C105.448 8.39337 96.7437 3.73037 89.2829 3.73037C84.6199 3.73037 80.2678 5.59556 78.4026 9.9477C74.3173 19.7827 69.4955 32.9317 65.0127 45.6311C58.6998 55.6187 48.9382 62.4838 41.9654 62.4838H40.722C36.059 61.8621 32.9503 57.8208 32.9503 52.847V50.9818C32.9503 50.6709 33.2612 50.6709 33.2612 50.6709C33.4533 50.6709 33.5267 50.7896 33.6281 50.9537C33.6908 51.0551 33.7642 51.1739 33.8829 51.2926C35.4372 54.7122 38.235 56.2665 41.6546 56.2665C48.8045 56.2665 58.4414 49.1166 63.7261 36.371C65.5913 31.708 66.5239 27.3559 66.5239 23.3146C66.5239 10.569 56.5762 3.41909 44.7632 3.41909C39.4785 3.41909 33.572 4.97343 28.2873 8.0821C13.0548 17.0972 0.620117 42.8992 0.620117 64.6599C0.620117 74.2968 3.10705 83.0011 8.70266 89.5293C13.3657 94.814 19.583 97.6118 26.4221 97.6118C35.0194 97.6118 44.4649 93.0883 52.6016 83.5021C52.6009 83.5424 52.6006 83.5828 52.6006 83.6232C52.6006 89.5297 57.2636 94.1927 63.481 96.3688C65.657 97.3014 68.4548 97.6122 70.9418 97.6122C77.1591 97.6122 83.0656 95.1253 85.2417 89.2188C85.4783 88.5877 85.8462 87.5897 86.3248 86.2913L86.3252 86.29C91.5054 72.2361 109.652 23.0041 114.774 23.0041H115.085C115.396 23.0041 115.396 23.6259 115.396 24.2476C115.396 28.1575 110.675 40.4864 105.944 52.8423C101.271 65.0462 96.5873 77.2764 96.4329 81.4471V82.0689C96.4329 92.0166 104.515 97.9231 112.909 97.9231C117.883 97.9231 123.478 95.747 126.898 90.7732C133.416 81.811 144.916 58.6132 150.828 46.2602C151.075 46.0146 151.289 45.7233 151.458 45.3864C154.567 38.8582 158.608 30.7756 162.027 25.4909C165.136 20.517 168.245 18.3409 170.732 18.3409C172.286 18.3409 173.219 19.5844 173.219 22.0714C173.219 24.5583 172.286 27.9778 170.11 32.6408C162.96 48.1842 144.93 70.5666 132.806 83.0013C131.562 84.2448 130.941 85.4882 130.941 87.0426C130.941 92.0164 138.712 96.9903 144.308 96.9903C145.862 96.9903 147.728 96.3686 148.66 95.1251C153.323 89.8404 156.432 87.6643 159.541 87.6643C161.899 87.6643 164.188 88.8528 167.17 90.4009C170.475 92.1173 174.632 94.2758 180.679 95.7468C182.545 96.0577 184.41 96.3686 186.275 96.3686C195.333 96.3686 203.045 91.1317 208.475 83.8759C208.852 84.8525 209.285 85.8045 209.78 86.7319C214.443 95.1253 225.945 100.099 236.825 100.099C242.421 100.099 247.705 98.8557 252.058 96.3688C263.249 89.8406 270.088 78.3385 275.062 62.4843C286.875 61.5517 294.646 51.9148 297.444 42.2779V41.3453C297.444 39.4801 294.957 37.9258 292.781 37.9258C291.849 37.9258 290.916 38.2367 290.605 39.1693C289.051 42.8997 285.32 47.8735 280.346 47.8735H279.414C281.279 42.2779 282.833 34.1954 282.833 26.7346C282.833 21.139 281.59 15.5434 279.103 11.813C273.818 4.04128 264.181 0 254.855 0C240.556 0 226.256 9.01515 226.256 27.978C226.256 29.5324 226.256 31.0867 226.567 32.641C226.309 32.641 225.945 32.5877 225.518 32.5252C224.915 32.4369 224.186 32.3302 223.458 32.3302ZM256.41 19.2738C257.342 19.2738 258.275 21.139 258.275 25.802C258.275 30.465 257.653 37.6149 255.788 44.7649H255.477C252.058 44.7649 250.814 41.3453 250.814 36.6823C250.814 29.2215 254.234 19.2738 256.41 19.2738ZM239.312 72.1212C239.312 69.3234 240.245 64.6604 242.421 58.1322C244.462 59.1528 246.085 59.5452 248.664 60.1688L248.665 60.169C249.227 60.305 249.835 60.4521 250.503 60.6191C247.705 70.5668 243.664 76.1624 241.177 76.1624C240.245 76.1624 239.312 74.919 239.312 72.1212ZM48.8045 17.0972H49.1154C49.7371 17.0972 50.048 17.4081 50.048 18.0299C50.048 21.7603 40.722 35.1275 38.8568 35.1275C38.5459 35.1275 38.5459 34.8167 38.5459 34.5058C38.5459 31.0863 45.0741 18.0299 48.8045 17.0972ZM217.487 36.2489L217.479 36.2612C215.927 38.8759 214.481 41.7346 213.196 44.7437L213.109 44.9474L213.108 44.9489L213.075 45.0269C212.461 46.4806 211.885 47.9679 211.352 49.4783L211.328 49.5477L211.293 49.6129C208.106 55.6498 201.9 61.5816 195.587 65.9889C192.419 68.2003 189.192 70.0503 186.256 71.3514C183.345 72.6414 180.626 73.4338 178.504 73.4338C177.057 73.4338 175.932 73.0608 174.84 72.3329L173.717 71.5845L174.758 70.7262C183.595 63.4393 192.414 55.392 199.48 47.5151C206.571 39.6111 211.799 31.9828 213.6 25.5324L213.601 25.5265C214.2 23.4294 214.495 21.3461 214.495 19.5844C214.495 13.1813 211.108 8.66094 205.871 5.68968C200.593 2.69498 193.476 1.3126 186.276 1.3126C179.231 1.3126 172.124 2.53954 166.461 4.66808C160.737 6.81944 156.752 9.78784 155.509 13.0869C154.881 14.8819 154.199 17.0749 153.41 19.6116C153.409 19.614 153.409 19.6164 153.408 19.6188L153.404 19.63C153.404 19.631 153.404 19.632 153.404 19.6331C151.494 25.7714 148.988 33.8282 145.231 42.6696L145.155 42.8486L145.051 42.9519C145.048 42.962 145.044 42.9764 145.039 42.9958C145.018 43.0806 145.006 43.1943 145.002 43.3287L144.995 43.5578L144.889 43.761C143.122 47.1438 140.779 51.346 138.634 54.7116C137.564 56.3906 136.527 57.8876 135.624 58.9749C135.175 59.516 134.735 59.9852 134.32 60.3279C133.956 60.6293 133.42 60.9989 132.805 60.9989C132.554 60.9989 132.235 60.9319 131.96 60.6876C131.705 60.4612 131.605 60.1838 131.561 60.0068C131.491 59.7257 131.492 59.3746 131.492 59.1268C131.492 59.1052 131.492 59.0843 131.492 59.0644C131.492 58.343 131.659 57.4 131.917 56.3357C132.179 55.2529 132.553 53.9743 133.005 52.5541C133.907 49.7178 135.138 46.2589 136.449 42.5725L136.454 42.5588C138.28 37.4261 140.267 31.8414 141.786 26.7797C142.391 24.3545 142.683 22.2707 142.683 20.5169C142.683 15.384 140.57 11.5477 137.417 8.97502C134.242 6.38336 129.968 5.04286 125.655 5.04286C120.322 5.04286 115.366 7.1091 112.167 11.4677C110.327 14.0449 108.473 17.5372 106.646 20.9861L106.612 21.0497C105.486 23.176 104.372 25.2805 103.297 27.0854C103.262 27.2188 103.206 27.3486 103.125 27.4697C102.979 27.6895 102.79 27.8235 102.633 27.9024C102.479 27.9793 102.337 28.0127 102.242 28.0285C102.193 28.0368 102.149 28.0414 102.114 28.0439C102.101 28.0448 102.089 28.0455 102.078 28.0459C102.074 28.0461 102.07 28.0463 102.066 28.0464L102.046 28.0469L102.037 28.047L102.033 28.047L102.031 28.047C102.031 28.047 102.029 28.047 102.029 27.1011V28.047C101.778 28.047 101.489 27.9809 101.234 27.7825C100.988 27.5909 100.867 27.3485 100.807 27.1676C100.713 26.8867 100.715 26.5745 100.716 26.4505C100.716 26.4401 100.716 26.431 100.716 26.4234V26.1868L100.822 25.9753C101.465 24.6893 102.282 22.4261 103.057 20.2701L103.059 20.2655C103.06 20.2629 103.061 20.2602 103.062 20.2575C103.348 19.4634 103.626 18.69 103.882 18.0067C104.201 17.0485 104.447 16.2793 104.447 15.543C104.447 12.4176 102.549 9.73739 99.6106 7.79057C96.6733 5.84463 92.8262 4.732 89.2836 4.732C84.8603 4.732 80.9792 6.48649 79.3263 10.3373C75.2526 20.1448 70.4395 33.2693 65.9587 45.9629L65.9211 46.0692L65.8608 46.1646C62.6386 51.2631 58.5327 55.5719 54.3243 58.6144C50.1381 61.6408 45.7486 63.4859 41.9654 63.4859H40.6555L40.5896 63.4771C35.348 62.7783 31.9484 58.2372 31.9484 52.8471V50.9819C31.9484 50.7289 32.0145 50.4725 32.1652 50.2464C32.3117 50.0266 32.4999 49.8926 32.6576 49.8138C32.8114 49.7369 32.9531 49.7034 33.0479 49.6876C33.0976 49.6793 33.1413 49.6748 33.1764 49.6723C33.1941 49.671 33.2102 49.6702 33.2243 49.6697L33.2441 49.6692L33.253 49.6691L33.2571 49.6691L33.2592 49.6691C33.2597 49.6691 33.2611 49.669 33.2612 50.6709C33.2612 50.6709 32.9503 50.6709 32.9503 50.9818V52.847C32.9503 57.8208 36.059 61.8621 40.722 62.4838H41.9654C48.9386 62.4838 58.701 55.618 65.0139 45.6293C69.4966 32.9304 74.3181 19.782 78.4033 9.94739C80.2685 5.59526 84.6206 3.73006 89.2836 3.73006C96.7444 3.73006 105.449 8.39306 105.449 15.543C105.449 16.4756 105.138 17.4082 104.827 18.3408C104.571 19.0244 104.291 19.802 104 20.6091C103.592 21.7446 103.162 22.9384 102.747 24.0104C102.451 24.7759 102.163 25.4793 101.895 26.0551C101.844 26.1669 101.792 26.2738 101.742 26.3755C101.734 26.3916 101.726 26.4075 101.718 26.4234C101.718 26.5313 101.718 26.6393 101.731 26.7342C101.756 26.9126 101.826 27.0451 102.029 27.0451C102.029 27.0451 102.34 27.0451 102.34 26.7342C102.402 26.6316 102.463 26.528 102.525 26.4234C102.546 26.3888 102.566 26.354 102.587 26.3192C102.939 25.7203 103.296 25.0895 103.657 24.4359C104.337 23.2058 105.031 21.895 105.736 20.5644C107.562 17.1165 109.458 13.5354 111.355 10.88C114.775 6.21699 120.059 4.04092 125.655 4.04092C134.67 4.04092 143.685 9.63653 143.685 20.5169C143.685 22.3821 143.375 24.5581 142.753 27.0451C141.224 32.1414 139.225 37.7598 137.398 42.8946C134.768 50.2884 132.494 56.6794 132.494 59.0644C132.494 59.6861 132.494 59.997 132.805 59.997C134.686 59.997 140.482 50.0333 144 43.2972C144.011 42.9694 144.061 42.5251 144.308 42.2777C148.047 33.481 150.541 25.4622 152.451 19.3218C153.241 16.7827 153.931 14.5642 154.567 12.7453C157.365 5.28453 171.976 0.31066 186.276 0.31066C200.887 0.31066 215.497 5.90627 215.497 19.5844C215.497 21.4496 215.186 23.6257 214.565 25.8018C210.891 38.9648 193.653 56.3479 176.208 70.8272C175.937 71.0519 175.666 71.2759 175.395 71.4992C175.707 71.7068 176.018 71.8797 176.341 72.0179C176.985 72.2939 177.676 72.4318 178.504 72.4318C186.155 72.4318 204.243 60.8221 210.407 49.1451C210.947 47.6155 211.53 46.1093 212.152 44.637C212.175 44.5413 212.196 44.4457 212.217 44.3502H212.274C213.576 41.3028 215.041 38.4045 216.618 35.7497C218.172 32.9519 220.97 32.3302 223.457 32.3302C224.185 32.3302 224.914 32.4369 225.517 32.5252C225.52 32.5256 225.522 32.526 225.524 32.5263C225.948 32.5883 226.309 32.641 226.565 32.641C226.498 32.3043 226.445 31.9676 226.404 31.6309C226.255 30.4133 226.255 29.1957 226.255 27.978C226.255 9.01515 240.554 0 254.854 0C264.18 0 273.817 4.04127 279.102 11.813C281.589 15.5434 282.832 21.139 282.832 26.7346C282.832 33.761 281.454 41.339 279.735 46.8716C279.629 47.2136 279.521 47.5478 279.413 47.8735H280.345C280.386 47.8735 280.427 47.8732 280.468 47.8725C285.381 47.7917 289.063 42.8689 290.604 39.1693C290.915 38.2367 291.848 37.9258 292.78 37.9258C294.956 37.9258 297.443 39.4801 297.443 41.3453V42.2779C294.645 51.9148 286.874 61.5517 275.061 62.4843C270.087 78.3385 263.248 89.8406 252.057 96.3688C247.704 98.8557 242.42 100.099 236.824 100.099C225.944 100.099 214.442 95.1253 209.779 86.7319C209.467 86.1484 209.181 85.5551 208.917 84.952C208.762 84.5972 208.614 84.239 208.475 83.8775C208.242 84.1886 208.005 84.496 207.764 84.7995C202.38 91.5719 194.945 96.3686 186.276 96.3686C184.411 96.3686 182.545 96.0577 180.68 95.7468C174.633 94.2758 170.475 92.1173 167.17 90.4009C164.188 88.8528 161.899 87.6643 159.541 87.6643C156.432 87.6643 153.323 89.8404 148.66 95.1251C147.728 96.3686 145.862 96.9903 144.308 96.9903C138.712 96.9903 130.941 92.0164 130.941 87.0426C130.941 86.8218 130.954 86.6074 130.979 86.3983C131.131 85.135 131.74 84.0682 132.807 83.0013C132.968 82.8359 133.13 82.6688 133.293 82.5C145.408 69.9725 163.056 47.9775 170.111 32.6408C172.287 27.9778 173.219 24.5583 173.219 22.0714C173.219 19.5844 172.286 18.3409 170.732 18.3409C168.245 18.3409 165.137 20.517 162.028 25.4909C158.609 30.7756 154.567 38.8582 151.458 45.3864C151.289 45.7233 151.075 46.0146 150.828 46.2602C146.378 55.5582 138.763 70.9998 132.489 81.8905C132.392 82.0592 132.295 82.2267 132.198 82.3931C132.197 82.3964 132.195 82.3996 132.193 82.4028C131.444 83.6941 130.716 84.9172 130.015 86.0536C128.893 87.8749 127.844 89.4735 126.899 90.7728C123.479 95.7467 117.883 97.9228 112.91 97.9228C104.516 97.9228 96.4336 92.0163 96.4336 82.0686V81.4468C96.588 77.2761 101.271 65.0459 105.944 52.842C110.676 40.4861 115.396 28.1572 115.396 24.2473C115.396 23.6255 115.396 23.0038 115.086 23.0038H114.775C109.653 23.0038 91.5061 72.2358 86.3259 86.2897C85.8471 87.5887 85.4791 88.5872 85.2423 89.2185C83.0663 95.125 77.1598 97.6119 70.9425 97.6119C68.4555 97.6119 65.6577 97.301 63.4817 96.3684C57.7351 94.3572 53.3164 90.2213 52.6802 84.9428C52.628 84.5103 52.6013 84.0702 52.6013 83.6229C52.6013 83.6012 52.6014 83.5795 52.6016 83.5578C52.6017 83.539 52.602 83.5202 52.6023 83.5014C52.5678 83.542 52.5334 83.5825 52.4989 83.6229C52.2138 83.9568 51.9271 84.2846 51.6389 84.6062C43.7257 93.4361 34.6824 97.6118 26.4221 97.6118C19.583 97.6118 13.3657 94.814 8.70266 89.5293C3.10705 83.0011 0.620117 74.2968 0.620117 64.6599C0.620117 42.8992 13.0548 17.0972 28.2873 8.0821C33.572 4.97343 39.4785 3.41909 44.7632 3.41909C56.5762 3.41909 66.5239 10.569 66.5239 23.3146C66.5239 27.3559 65.5913 31.708 63.7261 36.371C58.4414 49.1166 48.8045 56.2665 41.6546 56.2665C38.2853 56.2665 35.5196 54.7577 33.9522 51.4423C33.9289 51.3929 33.9057 51.3429 33.8829 51.2926C33.8804 51.2901 33.8778 51.2877 33.8753 51.2852C33.7716 51.1797 33.7031 51.0746 33.6455 50.9819C33.6396 50.9724 33.6338 50.9629 33.6281 50.9537C33.5267 50.7896 33.4533 50.6709 33.2612 50.6709L33.2612 49.6691C33.6051 49.6691 33.9128 49.7908 34.1538 50.0106C34.3195 50.1618 34.4328 50.3486 34.4721 50.4135C34.4754 50.4189 34.4782 50.4235 34.4804 50.4271C34.5426 50.5278 34.5633 50.5562 34.5914 50.5843L34.7198 50.7128L34.795 50.8782C35.4994 52.4278 36.4622 53.5095 37.5958 54.2096C38.733 54.912 40.0979 55.2647 41.6546 55.2647C44.9145 55.2647 48.889 53.6205 52.7396 50.3362C56.5726 47.0669 60.2119 42.2284 62.7982 35.9933C64.6256 31.4231 65.522 27.2001 65.522 23.3147C65.522 17.2258 63.1565 12.534 59.4233 9.34972C55.6719 6.15001 50.4753 4.42119 44.7632 4.42119C39.6645 4.42119 33.9331 5.92391 28.7965 8.94513C21.4115 13.3163 14.6071 21.8313 9.64239 32.0301C4.68477 42.2144 1.62206 53.9557 1.62206 64.6601C1.62206 74.1299 4.06465 82.5755 9.45863 88.8718C13.9335 93.9406 19.8767 96.61 26.4221 96.61C34.658 96.61 43.8434 92.2727 51.8384 82.853L53.649 80.7198L53.6041 83.5175C53.6035 83.5527 53.6032 83.5878 53.6032 83.6229C53.6032 88.9353 57.8111 93.3222 63.8126 95.4228L63.8449 95.4341L63.8763 95.4475C65.8707 96.3023 68.5112 96.61 70.9425 96.61C76.9423 96.61 82.3305 94.2239 84.3022 88.8721L84.3042 88.8667C84.5397 88.2388 84.9065 87.2437 85.3858 85.9432L85.3871 85.9398C87.9772 78.9127 93.8143 63.0764 99.6464 48.9932C102.561 41.954 105.485 35.3292 108.007 30.4554C109.266 28.0232 110.442 25.9929 111.483 24.5584C112.002 23.8437 112.512 23.2407 113.008 22.8065C113.472 22.3999 114.079 22.0019 114.775 22.0019H115.086C115.576 22.0019 115.923 22.2805 116.108 22.5689C116.262 22.8086 116.319 23.0659 116.346 23.2277C116.399 23.5448 116.399 23.9276 116.398 24.2055L116.398 24.2473C116.398 25.3709 116.069 26.9885 115.552 28.8901C115.027 30.8204 114.28 33.1384 113.391 35.7053C111.615 40.8357 109.247 47.0186 106.885 53.1876L106.88 53.2003C104.542 59.3067 102.209 65.3993 100.441 70.4858C99.5568 73.029 98.8187 75.3075 98.2931 77.2019C97.7647 79.106 97.4725 80.5488 97.4355 81.4661V82.0686C97.4355 91.3525 104.952 96.9208 112.91 96.9208C117.616 96.9208 122.873 94.8595 126.073 90.2052L126.08 90.1943L126.088 90.1835C132.54 81.3127 143.997 58.2136 149.925 45.828L149.999 45.6716L150.123 45.5494C150.291 45.3817 150.44 45.1817 150.559 44.9462C153.664 38.4244 157.726 30.2966 161.183 24.9532C162.776 22.4046 164.401 20.5208 165.993 19.2643C167.582 18.0096 169.194 17.339 170.732 17.339C171.818 17.339 172.758 17.7948 173.384 18.7059C173.973 19.5626 174.221 20.7273 174.221 22.0714C174.221 24.778 173.215 28.3566 171.02 33.062C163.798 48.7603 145.675 71.2383 133.524 83.7007L133.515 83.7098C132.409 84.8163 131.943 85.8182 131.943 87.0426C131.943 89.0304 133.545 91.2561 136.105 93.0631C138.623 94.8409 141.767 95.9884 144.309 95.9884C145.682 95.9884 147.184 95.4241 147.859 94.5239L147.883 94.4921L147.91 94.4622C152.555 89.197 155.936 86.6624 159.541 86.6624C162.146 86.6624 164.628 87.9512 167.469 89.4272L167.632 89.5117C170.92 91.219 174.977 93.324 180.881 94.7646C182.748 95.0757 184.519 95.3666 186.276 95.3666C194.919 95.3666 202.363 90.37 207.673 83.2771L208.758 81.8271L209.41 83.517C209.771 84.4536 210.186 85.3654 210.659 86.253C215.087 94.2139 226.165 99.0973 236.824 99.0973C242.275 99.0973 247.381 97.8857 251.556 95.5009C262.429 89.1563 269.162 77.9385 274.105 62.1844L274.307 61.5387L274.982 61.4855C286.18 60.6014 293.68 51.4848 296.441 42.1343V41.3453C296.441 40.8746 296.113 40.2854 295.355 39.7586C294.618 39.2458 293.65 38.9277 292.78 38.9277C292.412 38.9277 292.113 38.991 291.907 39.094C291.725 39.1849 291.616 39.303 291.555 39.4861L291.543 39.5208L291.529 39.5546C290.71 41.5205 289.319 43.8164 287.458 45.6367C285.597 47.4559 283.183 48.8755 280.345 48.8755H278.023L278.462 47.5567C280.297 42.0531 281.83 34.0775 281.83 26.7346C281.83 21.2535 280.607 15.8801 278.271 12.3733C273.213 4.93652 263.925 1.00194 254.854 1.00194C247.904 1.00194 240.998 3.19412 235.846 7.63672C230.716 12.0605 227.257 18.7723 227.257 27.978C227.257 29.5479 227.26 31.0033 227.548 32.4445L227.788 33.643H226.565C226.233 33.643 225.807 33.5805 225.427 33.5247L225.372 33.5166C224.759 33.4268 224.101 33.3321 223.457 33.3321C221.102 33.3321 218.782 33.9178 217.494 36.2363L217.487 36.2489ZM256.561 45.7668H255.476C254.446 45.7668 253.531 45.5065 252.754 44.9945C251.982 44.4865 251.401 43.7672 250.971 42.9299C250.125 41.282 249.811 39.0721 249.811 36.6823C249.811 32.8225 250.691 28.3631 251.843 24.8666C252.419 23.119 253.078 21.5668 253.756 20.4309C254.094 19.866 254.46 19.3632 254.854 18.9893C255.228 18.6334 255.758 18.2718 256.409 18.2718C257.01 18.2718 257.497 18.5804 257.845 18.9752C258.185 19.3604 258.443 19.8768 258.642 20.4724C259.04 21.6675 259.276 23.4213 259.276 25.802C259.276 30.5376 258.646 37.7738 256.756 45.0178L256.561 45.7668ZM241.834 56.7193L242.868 57.236C244.794 58.199 246.311 58.5693 248.897 59.1947C248.897 59.1946 248.897 59.1948 248.897 59.1947L248.901 59.1956L248.909 59.1976C249.469 59.3329 250.077 59.48 250.745 59.6471L251.746 59.8973L251.467 60.8904C250.049 65.9299 248.306 69.9112 246.569 72.6567C245.703 74.027 244.818 75.1211 243.951 75.8847C243.107 76.6281 242.157 77.1644 241.176 77.1644C240.208 77.1644 239.461 76.514 239.008 75.6598C238.555 74.8039 238.309 73.6142 238.309 72.1212C238.309 69.1561 239.285 64.3674 241.469 57.8153L241.834 56.7193ZM248.663 60.1688C246.479 59.6407 244.981 59.2785 243.333 58.5601C243.035 58.4301 242.732 58.2885 242.42 58.1322C242.311 58.4573 242.206 58.7779 242.104 59.0938C240.153 65.1203 239.311 69.4627 239.311 72.1212C239.311 74.919 240.244 76.1624 241.176 76.1624C243.582 76.1624 247.441 70.9273 250.223 61.5822C250.318 61.2658 250.411 60.9448 250.502 60.6191C250.163 60.5343 249.839 60.4546 249.529 60.3789C249.231 60.3063 248.946 60.2373 248.672 60.171L248.665 60.1695L248.663 60.1688ZM48.6812 16.0955H49.1154C49.5807 16.0955 50.1137 16.2125 50.5233 16.6221C50.9329 17.0317 51.0499 17.5647 51.0499 18.03C51.0499 18.6707 50.8574 19.4178 50.5869 20.1734C50.3093 20.9489 49.9181 21.8177 49.4549 22.7292C48.5278 24.5534 47.2809 26.6101 45.9829 28.5374C44.6853 30.4641 43.3201 32.2862 42.1494 33.637C41.5666 34.3095 41.0129 34.8874 40.5264 35.3057C40.2842 35.514 40.0361 35.7024 39.7917 35.8439C39.5713 35.9714 39.2391 36.1296 38.8568 36.1296C38.6058 36.1296 38.317 36.0635 38.0619 35.8651C37.8155 35.6735 37.6945 35.4311 37.6342 35.2502C37.5406 34.9693 37.5429 34.6571 37.5438 34.5331C37.5439 34.5227 37.544 34.5136 37.544 34.506C37.544 33.4422 38.0221 31.8257 38.6907 30.1105C39.3788 28.3454 40.3308 26.3237 41.3988 24.3855C42.465 22.4506 43.6625 20.5702 44.8481 19.1009C45.4406 18.3666 46.0458 17.7153 46.6457 17.2079C47.2334 16.7108 47.8816 16.2953 48.5615 16.1254L48.6812 16.0955ZM48.8045 17.0972C45.0741 18.0299 38.5459 31.0863 38.5459 34.5058C38.5459 34.8167 38.5459 35.1275 38.8568 35.1275C40.722 35.1275 50.048 21.7603 50.048 18.0299C50.048 17.4081 49.7371 17.0972 49.1154 17.0972H48.8045ZM258.274 25.802C258.274 21.139 257.341 19.2738 256.409 19.2738C254.233 19.2738 250.813 29.2215 250.813 36.6823C250.813 41.3453 252.057 44.7649 255.476 44.7649H255.787C257.652 37.6149 258.274 30.465 258.274 25.802Z" fill="#FFFDF3"/>
</svg>
